# xmcd
#
# Track frame offsets:
#	150
#	10797
#	21200
#	32782
#	44037
#	56930
#	69680
#	79890
#	90765
#	102735
#	114397
#	126802
#	137180
#	149937
#
# Disc length: 2162 seconds
#
# Revision: 2
# Processed by: cddbd v1.5.2PL0 Copyright (c) Steve Scherf et al.
# Submitted via: audiograbber 1.83.01
#
DISCID=d108700e
DTITLE=Impressions - Further Impressions
DYEAR=1900
DGENRE=Oldies
TTITLE0=Can't Work No Longer
TTITLE1=Girl You Don't Know Me
TTITLE2=I Made A Mistake
TTITLE3=We're In Love
TTITLE4=Just Another Dance
TTITLE5=I've Found What I Lost
TTITLE6=Get Up And Move
TTITLE7=Never Could You Be
TTITLE8=Just One Kiss From You
TTITLE9=Since I Lost The One I Love
TTITLE10=Too Slow
TTITLE11=You Always Hurt Me
TTITLE12=I Can't Stay Away From You
TTITLE13=You Got Me Running
EXTD=
EXTT0=
EXTT1=
EXTT2=
EXTT3=
EXTT4=
EXTT5=
EXTT6=
EXTT7=
EXTT8=
EXTT9=
EXTT10=
EXTT11=
EXTT12=
EXTT13=
PLAYORDER=
